<mxfile host="app.diagrams.net" modified="2021-06-25T15:38:12.695Z" agent="5.0 (Macintosh; Intel Mac OS X 10_14_6) AppleWebKit/605.1.15 (KHTML, like Gecko) Version/14.1.1 Safari/605.1.15" etag="tG4As5qc0rTa6Lzou___" version="14.8.1" type="github">
  <diagram id="Tzh5NbuKSc1-Ing6C1Te" name="Page-1">
    <mxGraphModel dx="1666" dy="964" grid="1" gridSize="10" guides="1" tooltips="1" connect="1" arrows="1" fold="1" page="1" pageScale="1" pageWidth="850" pageHeight="1100" math="0" shadow="0">
      <root>
        <mxCell id="0" />
        <mxCell id="1" parent="0" />
        <mxCell id="HGGvEbCV8pTtsPi0LXh0-6" value="" style="edgeStyle=orthogonalEdgeStyle;rounded=0;orthogonalLoop=1;jettySize=auto;html=1;" parent="1" source="HGGvEbCV8pTtsPi0LXh0-1" target="HGGvEbCV8pTtsPi0LXh0-5" edge="1">
          <mxGeometry relative="1" as="geometry" />
        </mxCell>
        <mxCell id="HGGvEbCV8pTtsPi0LXh0-26" style="edgeStyle=orthogonalEdgeStyle;rounded=0;orthogonalLoop=1;jettySize=auto;html=1;entryX=0.5;entryY=0;entryDx=0;entryDy=0;" parent="1" source="HGGvEbCV8pTtsPi0LXh0-1" target="HGGvEbCV8pTtsPi0LXh0-3" edge="1">
          <mxGeometry relative="1" as="geometry" />
        </mxCell>
        <mxCell id="HGGvEbCV8pTtsPi0LXh0-1" value="Methodology" style="rounded=1;whiteSpace=wrap;html=1;" parent="1" vertex="1">
          <mxGeometry x="360" y="100" width="120" height="60" as="geometry" />
        </mxCell>
        <mxCell id="HGGvEbCV8pTtsPi0LXh0-27" style="edgeStyle=orthogonalEdgeStyle;rounded=0;orthogonalLoop=1;jettySize=auto;html=1;exitX=0;exitY=0.5;exitDx=0;exitDy=0;" parent="1" source="HGGvEbCV8pTtsPi0LXh0-3" target="HGGvEbCV8pTtsPi0LXh0-16" edge="1">
          <mxGeometry relative="1" as="geometry" />
        </mxCell>
        <mxCell id="HGGvEbCV8pTtsPi0LXh0-3" value="&lt;span style=&quot;color: rgb(0, 0, 0); font-family: helvetica; font-size: 12px; font-style: normal; font-weight: normal; letter-spacing: normal; text-align: center; text-indent: 0px; text-transform: none; word-spacing: 0px; background-color: rgb(248, 249, 250); text-decoration: none; display: inline; float: none;&quot;&gt;Hyper-spectral&amp;nbsp;&lt;/span&gt;" style="whiteSpace=wrap;html=1;rounded=1;strokeColor=#FF9999;&#xa;shape=parallelogram;perimeter=parallelogramPerimeter" parent="1" vertex="1">
          <mxGeometry x="170" y="180" width="120" height="60" as="geometry" />
        </mxCell>
        <mxCell id="HGGvEbCV8pTtsPi0LXh0-8" value="" style="edgeStyle=orthogonalEdgeStyle;rounded=0;orthogonalLoop=1;jettySize=auto;html=1;" parent="1" source="HGGvEbCV8pTtsPi0LXh0-5" target="HGGvEbCV8pTtsPi0LXh0-7" edge="1">
          <mxGeometry relative="1" as="geometry" />
        </mxCell>
        <mxCell id="HGGvEbCV8pTtsPi0LXh0-12" value="" style="edgeStyle=orthogonalEdgeStyle;rounded=0;orthogonalLoop=1;jettySize=auto;html=1;" parent="1" source="HGGvEbCV8pTtsPi0LXh0-5" target="HGGvEbCV8pTtsPi0LXh0-11" edge="1">
          <mxGeometry relative="1" as="geometry" />
        </mxCell>
        <mxCell id="HGGvEbCV8pTtsPi0LXh0-5" value="multi-temporal&lt;br&gt;(multispec)" style="rounded=1;whiteSpace=wrap;html=1;strokeColor=#B9E0A5;" parent="1" vertex="1">
          <mxGeometry x="560" y="180" width="120" height="60" as="geometry" />
        </mxCell>
        <mxCell id="HGGvEbCV8pTtsPi0LXh0-10" value="" style="edgeStyle=orthogonalEdgeStyle;rounded=0;orthogonalLoop=1;jettySize=auto;html=1;" parent="1" source="HGGvEbCV8pTtsPi0LXh0-7" target="HGGvEbCV8pTtsPi0LXh0-9" edge="1">
          <mxGeometry relative="1" as="geometry" />
        </mxCell>
        <mxCell id="HGGvEbCV8pTtsPi0LXh0-7" value="Order by acquisition date" style="whiteSpace=wrap;html=1;rounded=1;strokeColor=#B9E0A5;" parent="1" vertex="1">
          <mxGeometry x="560" y="280" width="120" height="60" as="geometry" />
        </mxCell>
        <mxCell id="HGGvEbCV8pTtsPi0LXh0-20" value="" style="edgeStyle=orthogonalEdgeStyle;rounded=0;orthogonalLoop=1;jettySize=auto;html=1;" parent="1" source="HGGvEbCV8pTtsPi0LXh0-9" target="HGGvEbCV8pTtsPi0LXh0-19" edge="1">
          <mxGeometry relative="1" as="geometry" />
        </mxCell>
        <mxCell id="HGGvEbCV8pTtsPi0LXh0-9" value="Stacking procedure for ladsat 7&amp;amp;8?" style="whiteSpace=wrap;html=1;rounded=1;strokeColor=#B9E0A5;" parent="1" vertex="1">
          <mxGeometry x="560" y="360" width="120" height="60" as="geometry" />
        </mxCell>
        <mxCell id="HGGvEbCV8pTtsPi0LXh0-15" value="" style="edgeStyle=orthogonalEdgeStyle;rounded=0;orthogonalLoop=1;jettySize=auto;html=1;entryX=1.005;entryY=0.593;entryDx=0;entryDy=0;entryPerimeter=0;exitX=0.5;exitY=1;exitDx=0;exitDy=0;" parent="1" source="HGGvEbCV8pTtsPi0LXh0-11" target="HGGvEbCV8pTtsPi0LXh0-7" edge="1">
          <mxGeometry relative="1" as="geometry">
            <mxPoint x="780" y="340" as="targetPoint" />
          </mxGeometry>
        </mxCell>
        <mxCell id="HGGvEbCV8pTtsPi0LXh0-11" value="QA and cloud masking" style="rounded=1;whiteSpace=wrap;html=1;strokeColor=#B9E0A5;" parent="1" vertex="1">
          <mxGeometry x="720" y="180" width="120" height="60" as="geometry" />
        </mxCell>
        <mxCell id="HGGvEbCV8pTtsPi0LXh0-39" style="edgeStyle=orthogonalEdgeStyle;rounded=0;orthogonalLoop=1;jettySize=auto;html=1;exitX=0.5;exitY=1;exitDx=0;exitDy=0;entryX=0;entryY=0.5;entryDx=0;entryDy=0;" parent="1" source="HGGvEbCV8pTtsPi0LXh0-16" target="HGGvEbCV8pTtsPi0LXh0-29" edge="1">
          <mxGeometry relative="1" as="geometry" />
        </mxCell>
        <mxCell id="HGGvEbCV8pTtsPi0LXh0-16" value="Image precessing done" style="rounded=1;whiteSpace=wrap;html=1;strokeColor=#FF9999;" parent="1" vertex="1">
          <mxGeometry x="30" y="180" width="120" height="60" as="geometry" />
        </mxCell>
        <mxCell id="HGGvEbCV8pTtsPi0LXh0-22" style="edgeStyle=orthogonalEdgeStyle;rounded=0;orthogonalLoop=1;jettySize=auto;html=1;" parent="1" source="HGGvEbCV8pTtsPi0LXh0-17" target="HGGvEbCV8pTtsPi0LXh0-21" edge="1">
          <mxGeometry relative="1" as="geometry" />
        </mxCell>
        <mxCell id="HGGvEbCV8pTtsPi0LXh0-43" style="edgeStyle=orthogonalEdgeStyle;rounded=0;orthogonalLoop=1;jettySize=auto;html=1;exitX=0.5;exitY=1;exitDx=0;exitDy=0;" parent="1" source="HGGvEbCV8pTtsPi0LXh0-17" target="HGGvEbCV8pTtsPi0LXh0-18" edge="1">
          <mxGeometry relative="1" as="geometry" />
        </mxCell>
        <mxCell id="HGGvEbCV8pTtsPi0LXh0-17" value="find appropriate special library&amp;nbsp;" style="rounded=1;whiteSpace=wrap;html=1;" parent="1" vertex="1">
          <mxGeometry x="360" y="440" width="120" height="60" as="geometry" />
        </mxCell>
        <mxCell id="HGGvEbCV8pTtsPi0LXh0-45" style="edgeStyle=orthogonalEdgeStyle;rounded=0;orthogonalLoop=1;jettySize=auto;html=1;exitX=0.5;exitY=1;exitDx=0;exitDy=0;" parent="1" source="HGGvEbCV8pTtsPi0LXh0-18" target="HGGvEbCV8pTtsPi0LXh0-24" edge="1">
          <mxGeometry relative="1" as="geometry" />
        </mxCell>
        <mxCell id="HGGvEbCV8pTtsPi0LXh0-18" value="training data point collection" style="rounded=1;whiteSpace=wrap;html=1;" parent="1" vertex="1">
          <mxGeometry x="440" y="540" width="120" height="60" as="geometry" />
        </mxCell>
        <mxCell id="HGGvEbCV8pTtsPi0LXh0-40" style="edgeStyle=orthogonalEdgeStyle;rounded=0;orthogonalLoop=1;jettySize=auto;html=1;exitX=0;exitY=0.5;exitDx=0;exitDy=0;" parent="1" source="HGGvEbCV8pTtsPi0LXh0-19" target="HGGvEbCV8pTtsPi0LXh0-17" edge="1">
          <mxGeometry relative="1" as="geometry" />
        </mxCell>
        <mxCell id="HGGvEbCV8pTtsPi0LXh0-54" style="edgeStyle=orthogonalEdgeStyle;rounded=0;orthogonalLoop=1;jettySize=auto;html=1;exitX=0;exitY=0.5;exitDx=0;exitDy=0;entryX=1;entryY=0.5;entryDx=0;entryDy=0;" parent="1" source="HGGvEbCV8pTtsPi0LXh0-19" target="HGGvEbCV8pTtsPi0LXh0-51" edge="1">
          <mxGeometry relative="1" as="geometry">
            <Array as="points">
              <mxPoint x="530" y="470" />
              <mxPoint x="530" y="370" />
            </Array>
          </mxGeometry>
        </mxCell>
        <mxCell id="HGGvEbCV8pTtsPi0LXh0-19" value="reducing the stack into spectral-temporal metrics" style="rounded=1;whiteSpace=wrap;html=1;strokeColor=#B9E0A5;" parent="1" vertex="1">
          <mxGeometry x="560" y="440" width="120" height="60" as="geometry" />
        </mxCell>
        <mxCell id="HGGvEbCV8pTtsPi0LXh0-23" style="edgeStyle=orthogonalEdgeStyle;rounded=0;orthogonalLoop=1;jettySize=auto;html=1;exitX=0.5;exitY=1;exitDx=0;exitDy=0;" parent="1" source="HGGvEbCV8pTtsPi0LXh0-21" target="HGGvEbCV8pTtsPi0LXh0-24" edge="1">
          <mxGeometry relative="1" as="geometry">
            <mxPoint x="500.3333333333335" y="710" as="targetPoint" />
          </mxGeometry>
        </mxCell>
        <mxCell id="HGGvEbCV8pTtsPi0LXh0-21" value="synthetic mixing" style="rounded=1;whiteSpace=wrap;html=1;" parent="1" vertex="1">
          <mxGeometry x="280" y="540" width="120" height="60" as="geometry" />
        </mxCell>
        <mxCell id="HGGvEbCV8pTtsPi0LXh0-30" value="" style="edgeStyle=orthogonalEdgeStyle;rounded=0;orthogonalLoop=1;jettySize=auto;html=1;" parent="1" source="HGGvEbCV8pTtsPi0LXh0-24" target="HGGvEbCV8pTtsPi0LXh0-28" edge="1">
          <mxGeometry relative="1" as="geometry" />
        </mxCell>
        <mxCell id="HGGvEbCV8pTtsPi0LXh0-34" style="edgeStyle=orthogonalEdgeStyle;rounded=0;orthogonalLoop=1;jettySize=auto;html=1;exitX=0.5;exitY=1;exitDx=0;exitDy=0;" parent="1" source="HGGvEbCV8pTtsPi0LXh0-24" target="HGGvEbCV8pTtsPi0LXh0-31" edge="1">
          <mxGeometry relative="1" as="geometry" />
        </mxCell>
        <mxCell id="HGGvEbCV8pTtsPi0LXh0-24" value="regression model training" style="rounded=1;whiteSpace=wrap;html=1;" parent="1" vertex="1">
          <mxGeometry x="360.0033333333335" y="680" width="120" height="60" as="geometry" />
        </mxCell>
        <mxCell id="HGGvEbCV8pTtsPi0LXh0-33" style="edgeStyle=orthogonalEdgeStyle;rounded=0;orthogonalLoop=1;jettySize=auto;html=1;entryX=0;entryY=0.5;entryDx=0;entryDy=0;exitX=0.5;exitY=1;exitDx=0;exitDy=0;" parent="1" source="HGGvEbCV8pTtsPi0LXh0-28" target="HGGvEbCV8pTtsPi0LXh0-31" edge="1">
          <mxGeometry relative="1" as="geometry">
            <mxPoint x="260" y="750" as="targetPoint" />
          </mxGeometry>
        </mxCell>
        <mxCell id="HGGvEbCV8pTtsPi0LXh0-28" value="Comparing different regressors (SVM, RF, &amp;nbsp;SRM)" style="rounded=1;whiteSpace=wrap;html=1;" parent="1" vertex="1">
          <mxGeometry x="190" y="680" width="120" height="60" as="geometry" />
        </mxCell>
        <mxCell id="HGGvEbCV8pTtsPi0LXh0-41" style="edgeStyle=orthogonalEdgeStyle;rounded=0;orthogonalLoop=1;jettySize=auto;html=1;exitX=1;exitY=0.5;exitDx=0;exitDy=0;" parent="1" source="HGGvEbCV8pTtsPi0LXh0-29" target="HGGvEbCV8pTtsPi0LXh0-17" edge="1">
          <mxGeometry relative="1" as="geometry" />
        </mxCell>
        <mxCell id="HGGvEbCV8pTtsPi0LXh0-53" style="edgeStyle=orthogonalEdgeStyle;rounded=0;orthogonalLoop=1;jettySize=auto;html=1;exitX=0.5;exitY=0;exitDx=0;exitDy=0;entryX=0;entryY=0.5;entryDx=0;entryDy=0;" parent="1" source="HGGvEbCV8pTtsPi0LXh0-29" target="HGGvEbCV8pTtsPi0LXh0-51" edge="1">
          <mxGeometry relative="1" as="geometry" />
        </mxCell>
        <mxCell id="HGGvEbCV8pTtsPi0LXh0-29" value="Identify narrow band indices" style="rounded=1;whiteSpace=wrap;html=1;strokeColor=#FF9999;" parent="1" vertex="1">
          <mxGeometry x="210" y="440" width="120" height="60" as="geometry" />
        </mxCell>
        <mxCell id="HGGvEbCV8pTtsPi0LXh0-36" style="edgeStyle=orthogonalEdgeStyle;rounded=0;orthogonalLoop=1;jettySize=auto;html=1;exitX=0.5;exitY=1;exitDx=0;exitDy=0;" parent="1" source="HGGvEbCV8pTtsPi0LXh0-31" target="HGGvEbCV8pTtsPi0LXh0-32" edge="1">
          <mxGeometry relative="1" as="geometry" />
        </mxCell>
        <mxCell id="HGGvEbCV8pTtsPi0LXh0-31" value="class fraction estimates" style="rounded=1;whiteSpace=wrap;html=1;" parent="1" vertex="1">
          <mxGeometry x="360" y="780" width="120" height="60" as="geometry" />
        </mxCell>
        <mxCell id="HGGvEbCV8pTtsPi0LXh0-32" value="Final map validation" style="rounded=1;whiteSpace=wrap;html=1;" parent="1" vertex="1">
          <mxGeometry x="360" y="870" width="120" height="60" as="geometry" />
        </mxCell>
        <mxCell id="HGGvEbCV8pTtsPi0LXh0-44" style="edgeStyle=orthogonalEdgeStyle;rounded=0;orthogonalLoop=1;jettySize=auto;html=1;exitX=0;exitY=0.5;exitDx=0;exitDy=0;" parent="1" source="HGGvEbCV8pTtsPi0LXh0-37" target="HGGvEbCV8pTtsPi0LXh0-18" edge="1">
          <mxGeometry relative="1" as="geometry" />
        </mxCell>
        <mxCell id="HGGvEbCV8pTtsPi0LXh0-37" value="Use land cover shp to inform classification" style="rounded=1;whiteSpace=wrap;html=1;" parent="1" vertex="1">
          <mxGeometry x="600" y="540" width="140" height="60" as="geometry" />
        </mxCell>
        <mxCell id="HGGvEbCV8pTtsPi0LXh0-56" style="edgeStyle=orthogonalEdgeStyle;rounded=0;orthogonalLoop=1;jettySize=auto;html=1;exitX=0.5;exitY=0;exitDx=0;exitDy=0;" parent="1" source="HGGvEbCV8pTtsPi0LXh0-48" target="HGGvEbCV8pTtsPi0LXh0-37" edge="1">
          <mxGeometry relative="1" as="geometry" />
        </mxCell>
        <mxCell id="HGGvEbCV8pTtsPi0LXh0-48" value="ID Classes ?" style="rounded=1;whiteSpace=wrap;html=1;" parent="1" vertex="1">
          <mxGeometry x="610" y="620" width="120" height="60" as="geometry" />
        </mxCell>
        <mxCell id="HGGvEbCV8pTtsPi0LXh0-55" style="edgeStyle=orthogonalEdgeStyle;rounded=0;orthogonalLoop=1;jettySize=auto;html=1;exitX=0.5;exitY=1;exitDx=0;exitDy=0;" parent="1" source="HGGvEbCV8pTtsPi0LXh0-51" target="HGGvEbCV8pTtsPi0LXh0-17" edge="1">
          <mxGeometry relative="1" as="geometry" />
        </mxCell>
        <mxCell id="HGGvEbCV8pTtsPi0LXh0-51" value="Combined stack of hyper-spectral and multitemporal&amp;nbsp;" style="rounded=1;whiteSpace=wrap;html=1;" parent="1" vertex="1">
          <mxGeometry x="360" y="340" width="120" height="60" as="geometry" />
        </mxCell>
        <mxCell id="HGGvEbCV8pTtsPi0LXh0-57" value="external data validation&amp;nbsp;" style="rounded=1;whiteSpace=wrap;html=1;" parent="1" vertex="1">
          <mxGeometry x="600" y="780" width="120" height="60" as="geometry" />
        </mxCell>
        <mxCell id="HGGvEbCV8pTtsPi0LXh0-59" style="edgeStyle=orthogonalEdgeStyle;rounded=0;orthogonalLoop=1;jettySize=auto;html=1;exitX=0;exitY=0.5;exitDx=0;exitDy=0;" parent="1" source="HGGvEbCV8pTtsPi0LXh0-58" target="HGGvEbCV8pTtsPi0LXh0-57" edge="1">
          <mxGeometry relative="1" as="geometry" />
        </mxCell>
        <mxCell id="HGGvEbCV8pTtsPi0LXh0-58" value="Land cover map from cooper et al 2020, or the world wide web?" style="rounded=1;whiteSpace=wrap;html=1;" parent="1" vertex="1">
          <mxGeometry x="750" y="780" width="120" height="60" as="geometry" />
        </mxCell>
        <mxCell id="HGGvEbCV8pTtsPi0LXh0-64" value="" style="endArrow=none;dashed=1;html=1;" parent="1" edge="1">
          <mxGeometry width="50" height="50" relative="1" as="geometry">
            <mxPoint x="540" y="809.5" as="sourcePoint" />
            <mxPoint x="600" y="809.5" as="targetPoint" />
          </mxGeometry>
        </mxCell>
        <mxCell id="HGGvEbCV8pTtsPi0LXh0-66" value="" style="endArrow=none;dashed=1;html=1;" parent="1" edge="1">
          <mxGeometry width="50" height="50" relative="1" as="geometry">
            <mxPoint x="540" y="900" as="sourcePoint" />
            <mxPoint x="540" y="810" as="targetPoint" />
          </mxGeometry>
        </mxCell>
        <mxCell id="HGGvEbCV8pTtsPi0LXh0-68" value="" style="endArrow=none;dashed=1;html=1;" parent="1" edge="1">
          <mxGeometry width="50" height="50" relative="1" as="geometry">
            <mxPoint x="480" y="900" as="sourcePoint" />
            <mxPoint x="540" y="900" as="targetPoint" />
          </mxGeometry>
        </mxCell>
        <mxCell id="HGGvEbCV8pTtsPi0LXh0-69" value="&lt;font style=&quot;font-size: 9px&quot;&gt;veg vs non-veg&lt;br&gt;deciduous vs conifers&lt;br&gt;&amp;nbsp;low veg (shrubs; grass)&lt;/font&gt;" style="ellipse;shape=cloud;whiteSpace=wrap;html=1;rounded=1;" parent="1" vertex="1">
          <mxGeometry x="730" y="590" width="160" height="120" as="geometry" />
        </mxCell>
        <mxCell id="jG4s_vNNvWsj6CazUvVq-4" value="" style="shape=parallelogram;perimeter=parallelogramPerimeter;whiteSpace=wrap;html=1;fixedSize=1;" vertex="1" parent="1">
          <mxGeometry x="365" y="990" width="120" height="60" as="geometry" />
        </mxCell>
      </root>
    </mxGraphModel>
  </diagram>
</mxfile>
